<?xml version="1.0" encoding="iso-8859-1"?>
<!-- Generator: Adobe Illustrator 19.0.0, SVG Export Plug-In . SVG Version: 6.00 Build 0)  -->
<svg xmlns="http://www.w3.org/2000/svg" xmlns:xlink="http://www.w3.org/1999/xlink" version="1.1" id="Layer_1" x="0px" y="0px" viewBox="0 0 512 512" style="enable-background:new 0 0 512 512;" xml:space="preserve">
<polygon style="fill:#548229;" points="486.455,361.655 504.386,361.655 504.386,101.256 101.997,101.256 101.997,123.238   101.997,361.655 "/>
<polygon style="fill:#6EAC34;" points="74.297,150.345 462.988,150.345 462.988,410.744 7.614,410.744 7.614,150.345   36.001,150.345 "/>
<g>
	<circle style="fill:#C6E0A9;" cx="237.888" cy="281.4" r="81.33"/>
	<path style="fill:#C6E0A9;" d="M7.614,226.045c41.808,0,75.7-33.892,75.7-75.7h-75.7V226.045z"/>
	<path style="fill:#C6E0A9;" d="M462.988,226.045c-41.808,0-75.7-33.892-75.7-75.7h75.7V226.045z"/>
	<path style="fill:#C6E0A9;" d="M83.315,410.744c0-41.808-33.892-75.7-75.7-75.7v75.7H83.315z"/>
	<path style="fill:#C6E0A9;" d="M387.288,410.744c0-41.808,33.892-75.7,75.7-75.7v75.7H387.288z"/>
</g>
<g style="opacity:0.46;">
	<path style="fill:#548229;" d="M395.693,150.692c-44.807,124.811-161.564,210.71-249.459,260.053h284.359h32.397V150.692H395.693z"/>
</g>
<path d="M223.453,304.423c0-4.205-3.409-7.614-7.614-7.614s-7.614,3.409-7.614,7.614c0,13.722,9.37,25.294,22.046,28.664v5.459  c0,4.205,3.409,7.614,7.614,7.614s7.614-3.409,7.614-7.614v-5.459c12.676-3.371,22.045-14.942,22.045-28.664  c0-14.744-10.943-20.596-20.598-25.758c-0.476-0.255-0.963-0.519-1.448-0.779v-29.791c4.084,2.551,6.816,7.075,6.816,12.236  c0,4.205,3.409,7.614,7.614,7.614c4.206,0,7.614-3.409,7.614-7.614c0-13.722-9.368-25.294-22.045-28.664v-7.421  c0-4.205-3.409-7.614-7.614-7.614s-7.614,3.409-7.614,7.614v7.421c-12.676,3.371-22.046,14.942-22.046,28.664  c0,14.422,10.414,20.101,19.602,25.113c0.803,0.438,1.622,0.888,2.444,1.344v29.87C226.185,314.108,223.453,309.584,223.453,304.423  z M252.315,304.423c0,5.16-2.732,9.684-6.816,12.236v-21.363C250.529,298.33,252.315,300.478,252.315,304.423z M223.453,260.331  c0-5.16,2.732-9.685,6.817-12.237v21.242C224.878,266.111,223.453,264.236,223.453,260.331z"/>
<path d="M462.989,142.731H74.297c-4.205,0-7.614,3.409-7.614,7.614c0,4.205,3.409,7.614,7.614,7.614h0.966  c-3.519,31.469-28.566,56.516-60.035,60.035v-60.035H36c4.205,0,7.614-3.409,7.614-7.614c0-4.205-3.409-7.614-7.614-7.614H7.614  c-4.205,0-7.614,3.409-7.614,7.614v260.399c0,4.205,3.409,7.614,7.614,7.614h455.375c4.206,0,7.614-3.409,7.614-7.614V150.345  C470.603,146.14,467.195,142.731,462.989,142.731z M455.375,217.995c-31.47-3.519-56.517-28.566-60.035-60.035h60.035V217.995z   M90.566,157.959h289.47c3.631,39.873,35.465,71.705,75.338,75.338v94.496c-39.873,3.631-71.706,35.464-75.338,75.338H90.566  c-3.631-39.873-35.465-71.705-75.338-75.338v-94.496C55.101,229.666,86.935,197.832,90.566,157.959z M15.228,343.095  c31.469,3.52,56.517,28.566,60.035,60.035H15.228V343.095z M395.339,403.13c3.519-31.469,28.566-56.516,60.035-60.035v60.035  H395.339z"/>
<path d="M504.386,93.641H101.997c-4.205,0-7.614,3.409-7.614,7.614v21.983c0,4.205,3.409,7.614,7.614,7.614s7.614-3.409,7.614-7.614  V108.87h387.161v245.171h-10.317c-4.206,0-7.614,3.409-7.614,7.614c0,4.205,3.408,7.614,7.614,7.614h17.931  c4.206,0,7.614-3.409,7.614-7.614v-260.4C512,97.051,508.592,93.641,504.386,93.641z"/>
<path d="M237.885,370.338c49.043,0,88.942-39.899,88.942-88.942s-39.899-88.942-88.942-88.942s-88.942,39.899-88.942,88.942  S188.842,370.338,237.885,370.338z M237.885,207.684c40.647,0,73.714,33.068,73.714,73.714s-33.067,73.714-73.714,73.714  c-40.646,0-73.714-33.068-73.714-73.714S197.239,207.684,237.885,207.684z"/>
<g>
</g>
<g>
</g>
<g>
</g>
<g>
</g>
<g>
</g>
<g>
</g>
<g>
</g>
<g>
</g>
<g>
</g>
<g>
</g>
<g>
</g>
<g>
</g>
<g>
</g>
<g>
</g>
<g>
</g>
</svg>
